<svg viewBox="578.821 348.7778 349.1976 333.4444" width="5000" height="4774.43716680756" xmlns="http://www.w3.org/2000/svg" xmlns:xlink="http://www.w3.org/1999/xlink" preserveAspectRatio="none"><defs></defs><style>.aD6z1nYkhcolor {fill:#000000;fill-opacity:1;}.aLgOaV3zRcolors-0 {fill:#4884FF;fill-opacity:1;}.axoalFOJR40filter-floo {flood-color:#000000;flood-opacity:0.5;}.icon3-str {stroke:#AAAAAA;stroke-opacity:1;}</style><defs>
      <filter
        x="-1000"
        y="-1000"
        width="5000"
        height="5000"
        id="xoalFOJR4"
        filterUnits="userSpaceOnUse"
        primitiveUnits="userSpaceOnUse"
        color-interpolation-filters="sRGB">
        <feMerge><feMergeNode in="SourceGraphic" /></feMerge>
      </filter></defs><g opacity="0.31" transform="rotate(0 578.821 348.7778)">
<svg width="349.1976" height="333.4444" x="578.821" y="348.7778" version="1.1" preserveAspectRatio="none" viewBox="33.5 36.49999237060547 133 127.00000762939452">
  <g transform="matrix(1 0 0 1 0 0)" ><g><path d="M123.2 36.5L56.7 48.1l-23.2 63.5 43.3 51.9 66.5-11.6 23.2-63.5-43.3-51.9zm-57 75.5l49.3-46.2 8 65.4L66.2 112zm54.9 22.1l-42.3 22.7-12.4-41.1 54.7 18.4zm-5.7-73.4L65.5 50l54.8-9.6-4.9 20.3zm-2.6 3L65.6 108 61 52.6l51.8 11.1zm-50.3 50.9L75 156.1l-35.8-42.9 23.3 1.4zm62.8 21l13.3 13.6-57.3 10 44-23.6zm1.2-7.6L119 66.4l41.2 22.8-33.7 38.8zm-8-65.7l4.9-20.2 35.5 42.6-40.4-22.4zm-60.7-7.2l4.7 56.1-24.6-1.5 19.9-54.6zm83.6 92.2L127 132.6l34-39.2-19.6 53.9z" data-color="1" class="aLgOaV3zRcolors-0"></path></g></g>
</svg>
</g><g opacity="1" transform="rotate(0 590.7949 499.9165)">
<svg width="325.2498" height="31.167" x="590.7949" y="499.9165" version="1.1" preserveAspectRatio="none" viewBox="5.28 -29.08 308.48 29.56">
  <g transform="matrix(1 0 0 1 0 0)" class="aD6z1nYkhcolor"><path id="id-D6z1nYkh13" d="M14.44-1.40L14.44-1.40Q20.08-1.40 23.50-4.46Q26.92-7.52 26.92-13.68Q26.92-19.84 23.06-23.48Q19.20-27.12 13.52-27.12L13.52-27.12Q9.88-27.12 7.20-26.92L7.20-26.92L7.20-1.72Q9.80-1.40 14.44-1.40ZM13.52-28.88L13.52-28.88Q20.12-28.88 24.56-24.78Q29-20.68 29-13.64L29-13.64Q29-10.08 27.86-7.34Q26.72-4.60 24.72-2.96L24.72-2.96Q20.60 0.36 14.44 0.36L14.44 0.36Q10.40 0.36 5.28-0.08L5.28-0.08L5.28-28.60Q9.36-28.88 13.52-28.88Z M59.36 0L57.44 0L57.44-14.32L37.80-14.32L37.80 0L35.88 0L35.88-28.60L37.80-28.60L37.80-16.04L57.44-16.04L57.44-28.60L59.36-28.60L59.36 0Z M87.20-2.78Q84.44 0.48 78.80 0.48Q73.16 0.48 70.38-2.80Q67.60-6.08 67.60-11.76L67.60-11.76L67.60-28.60L69.52-28.60L69.52-11.76Q69.52-1.20 78.78-1.20Q88.04-1.20 88.04-11.76L88.04-11.76L88.04-28.60L89.96-28.60L89.96-11.76Q89.96-6.04 87.20-2.78Z M100-24.92L100.04-24.04L100.12-20.64L100.12 0L98.20 0L98.20-28.84L99.08-28.84L117.92-7.12Q119.84-4.84 120.88-3.48L120.88-3.48Q120.72-5.40 120.72-7.88L120.72-7.88L120.72-28.60L122.64-28.60L122.64 0.24L121.76 0.24L102.56-21.88Q100.56-24.16 100-24.92L100-24.92Z M165.16-1.40L165.16-1.40Q170.80-1.40 174.22-4.46Q177.64-7.52 177.64-13.68Q177.64-19.84 173.78-23.48Q169.92-27.12 164.24-27.12L164.24-27.12Q160.60-27.12 157.92-26.92L157.92-26.92L157.92-1.72Q160.52-1.40 165.16-1.40ZM164.24-28.88L164.24-28.88Q170.84-28.88 175.28-24.78Q179.72-20.68 179.72-13.64L179.72-13.64Q179.72-10.08 178.58-7.34Q177.44-4.60 175.44-2.96L175.44-2.96Q171.32 0.36 165.16 0.36L165.16 0.36Q161.12 0.36 156-0.08L156-0.08L156-28.60Q160.08-28.88 164.24-28.88Z M200.32 0L186.60 0L186.60-28.60L199.88-28.60L199.88-26.92L188.52-26.92L188.52-16.40L198.80-16.40L198.80-14.76L188.52-14.76L188.52-1.68L200.32-1.68L200.32 0Z M219.04-27.64L218.36-26.08Q215.44-27.32 212.56-27.32L212.56-27.32Q206.72-27.32 206.72-23L206.72-23Q206.72-21.12 208.04-19.50Q209.36-17.88 211.24-16.62Q213.12-15.36 215-14.04Q216.88-12.72 218.20-10.88Q219.52-9.04 219.52-6.88L219.52-6.88Q219.52-3.24 217.08-1.38Q214.64 0.48 210.34 0.48Q206.04 0.48 203-1.72L203-1.72L203.96-3.16Q206.84-1.28 210.28-1.28Q213.72-1.28 215.56-2.66Q217.40-4.04 217.40-6.64L217.40-6.64Q217.40-8.44 216.08-10.06Q214.76-11.68 212.88-12.98Q211-14.28 209.12-15.64Q207.24-17 205.92-18.88Q204.60-20.76 204.60-22.92L204.60-22.92Q204.60-25.76 206.70-27.42Q208.80-29.08 212.38-29.08Q215.96-29.08 219.04-27.64L219.04-27.64Z M227.80 0L225.88 0L225.88-28.60L227.80-28.60L227.80 0Z M248.64-27.32Q243.40-27.32 240.08-23.56Q236.76-19.80 236.76-14.34Q236.76-8.88 240.52-5.08Q244.28-1.28 249.68-1.28L249.68-1.28Q254.32-1.28 257.40-2.56L257.40-2.56L257.40-14.32L259.32-14.32L259.32-1.68Q255.84 0.48 249.58 0.48Q243.32 0.48 239.00-3.82Q234.68-8.12 234.68-14.34Q234.68-20.56 238.60-24.82Q242.52-29.08 248.64-29.08L248.64-29.08Q253.44-29.08 258.36-27.48L258.36-27.48L257.84-25.88Q253.04-27.32 248.64-27.32L248.64-27.32Z M269.04-24.92L269.08-24.04L269.16-20.64L269.16 0L267.24 0L267.24-28.84L268.12-28.84L286.96-7.12Q288.88-4.84 289.92-3.48L289.92-3.48Q289.76-5.40 289.76-7.88L289.76-7.88L289.76-28.60L291.68-28.60L291.68 0.24L290.80 0.24L271.60-21.88Q269.60-24.16 269.04-24.92L269.04-24.92Z M313.28-27.64L312.60-26.08Q309.68-27.32 306.80-27.32L306.80-27.32Q300.96-27.32 300.96-23L300.96-23Q300.96-21.12 302.28-19.50Q303.60-17.88 305.48-16.62Q307.36-15.36 309.24-14.04Q311.12-12.72 312.44-10.88Q313.76-9.04 313.76-6.88L313.76-6.88Q313.76-3.24 311.32-1.38Q308.88 0.48 304.58 0.48Q300.28 0.48 297.24-1.72L297.24-1.72L298.20-3.16Q301.08-1.28 304.52-1.28Q307.96-1.28 309.80-2.66Q311.64-4.04 311.64-6.64L311.64-6.64Q311.64-8.44 310.32-10.06Q309-11.68 307.12-12.98Q305.24-14.28 303.36-15.64Q301.48-17 300.16-18.88Q298.84-20.76 298.84-22.92L298.84-22.92Q298.84-25.76 300.94-27.42Q303.04-29.08 306.62-29.08Q310.20-29.08 313.28-27.64L313.28-27.64Z"/></g>
</svg>
</g></svg>